<svg width="574" height="106" viewBox="0 0 574 106" fill="none" xmlns="http://www.w3.org/2000/svg">
<path d="M19.6367 88.9619C19.6367 90.3564 19.2852 91.6807 18.582 92.9346C17.8789 94.1768 16.7832 95.1846 15.2949 95.958C13.8184 96.7314 11.9082 97.1182 9.56445 97.1182C8.39258 97.1182 7.36133 97.0654 6.4707 96.96C5.5918 96.8545 4.77148 96.6846 4.00977 96.4502C3.24805 96.2041 2.45703 95.8877 1.63672 95.501V89.3135C3.03125 90.0166 4.4375 90.5557 5.85547 90.9307C7.27344 91.2939 8.55664 91.4756 9.70508 91.4756C10.3965 91.4756 10.959 91.3936 11.3926 91.2295C11.8379 91.0654 12.166 90.8428 12.377 90.5615C12.5879 90.2686 12.6934 89.9346 12.6934 89.5596C12.6934 89.1143 12.5352 88.7393 12.2188 88.4346C11.9141 88.1182 11.4219 87.79 10.7422 87.4502C10.0625 87.1104 9.16602 86.6885 8.05273 86.1846C7.10352 85.7393 6.24219 85.2822 5.46875 84.8135C4.70703 84.3447 4.05078 83.8115 3.5 83.2139C2.96094 82.6045 2.54492 81.8955 2.25195 81.0869C1.95898 80.2783 1.8125 79.3232 1.8125 78.2217C1.8125 76.5693 2.2168 75.1865 3.02539 74.0732C3.8457 72.9482 4.98242 72.1045 6.43555 71.542C7.90039 70.9795 9.58789 70.6982 11.498 70.6982C13.1738 70.6982 14.6797 70.8857 16.0156 71.2607C17.3633 71.6357 18.5703 72.0635 19.6367 72.5439L17.5098 77.9053C16.4082 77.4014 15.3242 77.0029 14.2578 76.71C13.1914 76.4053 12.2012 76.2529 11.2871 76.2529C10.6895 76.2529 10.1973 76.3291 9.81055 76.4814C9.43555 76.6221 9.1543 76.8154 8.9668 77.0615C8.79102 77.3076 8.70312 77.5889 8.70312 77.9053C8.70312 78.3037 8.85547 78.6611 9.16016 78.9775C9.47656 79.2939 9.99805 79.6396 10.7246 80.0146C11.4629 80.3779 12.4648 80.8525 13.7305 81.4385C14.9844 82.001 16.0508 82.6104 16.9297 83.2666C17.8086 83.9111 18.4766 84.6904 18.9336 85.6045C19.4023 86.5068 19.6367 87.626 19.6367 88.9619ZM20.7969 76.8506H28.0391L31.4141 88.2764C31.4609 88.4404 31.5078 88.6455 31.5547 88.8916C31.6016 89.126 31.6426 89.3779 31.6777 89.6475C31.7129 89.917 31.7363 90.1807 31.748 90.4385H31.8887C31.9473 89.958 32.0117 89.542 32.082 89.1904C32.1641 88.8271 32.2402 88.5342 32.3105 88.3115L35.7734 76.8506H42.7871L34.9121 98.0322C34.3027 99.6494 33.5938 101.003 32.7852 102.093C31.9883 103.194 30.998 104.021 29.8145 104.571C28.6426 105.134 27.1836 105.415 25.4375 105.415C24.8047 105.415 24.2598 105.38 23.8027 105.31C23.3574 105.251 22.9648 105.187 22.625 105.116V99.7197C22.8828 99.7666 23.1992 99.8135 23.5742 99.8604C23.9492 99.9072 24.3418 99.9307 24.752 99.9307C25.5137 99.9307 26.1289 99.7783 26.5977 99.4736C27.0781 99.1689 27.4707 98.7646 27.7754 98.2607C28.0801 97.7686 28.3438 97.2354 28.5664 96.6611L28.6367 96.4854L20.7969 76.8506ZM69.4883 76.499C71.7617 76.499 73.4961 77.0791 74.6914 78.2393C75.8984 79.3994 76.502 81.2568 76.502 83.8115V96.7666H69.6289V85.9385C69.6289 84.4268 69.4238 83.3779 69.0137 82.792C68.6152 82.1943 68.0176 81.8955 67.2207 81.8955C66.1074 81.8955 65.334 82.3818 64.9004 83.3545C64.4785 84.3271 64.2676 85.7041 64.2676 87.4854V96.7666H57.377V85.9385C57.377 84.9775 57.2891 84.2041 57.1133 83.6182C56.9492 83.0205 56.6973 82.5869 56.3574 82.3174C56.0176 82.0361 55.5898 81.8955 55.0742 81.8955C54.2891 81.8955 53.6738 82.1357 53.2285 82.6162C52.7949 83.085 52.4902 83.7764 52.3145 84.6904C52.1387 85.6045 52.0508 86.7236 52.0508 88.0479V96.7666H45.1777V76.8506H50.3633L51.3652 79.3115H51.5586C51.9102 78.7725 52.3613 78.292 52.9121 77.8701C53.4746 77.4482 54.1367 77.1143 54.8984 76.8682C55.6719 76.6221 56.5508 76.499 57.5352 76.499C59 76.499 60.207 76.7451 61.1562 77.2373C62.1055 77.7295 62.8789 78.4092 63.4766 79.2764H63.6875C64.3203 78.3857 65.1348 77.7002 66.1309 77.2197C67.127 76.7393 68.2461 76.499 69.4883 76.499ZM88.0508 69.415V75.6025C88.0508 76.3057 88.0273 76.9795 87.9805 77.624C87.9336 78.2568 87.875 78.8545 87.8047 79.417H88.0508C88.5664 78.6084 89.2402 77.9229 90.0723 77.3604C90.9043 76.7861 91.9941 76.499 93.3418 76.499C95.416 76.499 97.1094 77.3779 98.4219 79.1357C99.7461 80.8936 100.408 83.4365 100.408 86.7646C100.408 89.0264 100.104 90.9307 99.4941 92.4775C98.8848 94.0127 98.0293 95.1729 96.9277 95.958C95.8379 96.7314 94.5723 97.1182 93.1309 97.1182C91.7246 97.1182 90.6523 96.8779 89.9141 96.3975C89.1875 95.9053 88.5664 95.3779 88.0508 94.8154H87.6289L86.5391 96.7666H81.1777V69.415H88.0508ZM90.8281 81.8955C90.1953 81.8955 89.6738 82.042 89.2637 82.335C88.8535 82.6279 88.5488 83.085 88.3496 83.7061C88.1504 84.3154 88.0508 85.0947 88.0508 86.0439V87.0107C88.0508 88.5576 88.2559 89.7061 88.666 90.4561C89.0879 91.2061 89.832 91.5811 90.8984 91.5811C91.707 91.5811 92.3281 91.165 92.7617 90.333C93.1953 89.501 93.4121 88.2881 93.4121 86.6943C93.4121 85.1006 93.2012 83.9053 92.7793 83.1084C92.3574 82.2998 91.707 81.8955 90.8281 81.8955ZM111.254 76.8506V96.7666H104.381V76.8506H111.254ZM107.844 68.835C108.828 68.835 109.684 69.04 110.41 69.4502C111.148 69.8604 111.518 70.6748 111.518 71.8936C111.518 73.0771 111.148 73.8799 110.41 74.3018C109.684 74.7119 108.828 74.917 107.844 74.917C106.836 74.917 105.975 74.7119 105.26 74.3018C104.557 73.8799 104.205 73.0771 104.205 71.8936C104.205 70.6748 104.557 69.8604 105.26 69.4502C105.975 69.04 106.836 68.835 107.844 68.835ZM135.072 86.7646C135.072 88.4287 134.844 89.9053 134.387 91.1943C133.93 92.4834 133.268 93.5674 132.4 94.4463C131.533 95.3252 130.484 95.9932 129.254 96.4502C128.023 96.8955 126.635 97.1182 125.088 97.1182C123.646 97.1182 122.322 96.8955 121.115 96.4502C119.92 95.9932 118.877 95.3252 117.986 94.4463C117.096 93.5674 116.404 92.4834 115.912 91.1943C115.432 89.9053 115.191 88.4287 115.191 86.7646C115.191 84.5615 115.59 82.6982 116.387 81.1748C117.195 79.6514 118.344 78.4912 119.832 77.6943C121.332 76.8975 123.119 76.499 125.193 76.499C127.104 76.499 128.803 76.8975 130.291 77.6943C131.779 78.4912 132.945 79.6514 133.789 81.1748C134.645 82.6982 135.072 84.5615 135.072 86.7646ZM122.17 86.7646C122.17 87.9014 122.27 88.8623 122.469 89.6475C122.668 90.4209 122.984 91.0127 123.418 91.4229C123.863 91.8213 124.443 92.0205 125.158 92.0205C125.873 92.0205 126.441 91.8213 126.863 91.4229C127.285 91.0127 127.59 90.4209 127.777 89.6475C127.977 88.8623 128.076 87.9014 128.076 86.7646C128.076 85.6279 127.977 84.6787 127.777 83.917C127.59 83.1553 127.279 82.5811 126.846 82.1943C126.424 81.8076 125.85 81.6143 125.123 81.6143C124.08 81.6143 123.324 82.0479 122.855 82.915C122.398 83.7822 122.17 85.0654 122.17 86.7646ZM153.811 90.6494C153.811 91.915 153.529 93.0342 152.967 94.0068C152.404 94.9795 151.502 95.7412 150.26 96.292C149.029 96.8428 147.406 97.1182 145.391 97.1182C143.973 97.1182 142.701 97.042 141.576 96.8896C140.463 96.7373 139.332 96.4443 138.184 96.0107V90.5088C139.438 91.083 140.715 91.499 142.016 91.7568C143.316 92.0029 144.342 92.126 145.092 92.126C145.865 92.126 146.428 92.0439 146.779 91.8799C147.143 91.7041 147.324 91.4463 147.324 91.1064C147.324 90.8135 147.201 90.5674 146.955 90.3682C146.721 90.1572 146.293 89.917 145.672 89.6475C145.062 89.3779 144.201 89.0146 143.088 88.5576C141.986 88.1006 141.066 87.6025 140.328 87.0635C139.602 86.5244 139.057 85.8799 138.693 85.1299C138.33 84.3799 138.148 83.46 138.148 82.3701C138.148 80.4248 138.898 78.96 140.398 77.9756C141.898 76.9912 143.885 76.499 146.357 76.499C147.67 76.499 148.906 76.6455 150.066 76.9385C151.227 77.2197 152.428 77.6357 153.67 78.1865L151.789 82.6162C150.805 82.1709 149.809 81.8135 148.801 81.5439C147.793 81.2744 146.99 81.1396 146.393 81.1396C145.854 81.1396 145.438 81.21 145.145 81.3506C144.852 81.4912 144.705 81.6963 144.705 81.9658C144.705 82.2119 144.805 82.4287 145.004 82.6162C145.215 82.8037 145.607 83.0205 146.182 83.2666C146.756 83.5127 147.594 83.8584 148.695 84.3037C149.855 84.7725 150.811 85.2764 151.561 85.8154C152.322 86.3428 152.885 86.9873 153.248 87.749C153.623 88.5107 153.811 89.4775 153.811 90.6494ZM164.551 76.8506V96.7666H157.678V76.8506H164.551ZM161.141 68.835C162.125 68.835 162.98 69.04 163.707 69.4502C164.445 69.8604 164.814 70.6748 164.814 71.8936C164.814 73.0771 164.445 73.8799 163.707 74.3018C162.98 74.7119 162.125 74.917 161.141 74.917C160.133 74.917 159.271 74.7119 158.557 74.3018C157.854 73.8799 157.502 73.0771 157.502 71.8936C157.502 70.6748 157.854 69.8604 158.557 69.4502C159.271 69.04 160.133 68.835 161.141 68.835ZM184.15 90.6494C184.15 91.915 183.869 93.0342 183.307 94.0068C182.744 94.9795 181.842 95.7412 180.6 96.292C179.369 96.8428 177.746 97.1182 175.73 97.1182C174.312 97.1182 173.041 97.042 171.916 96.8896C170.803 96.7373 169.672 96.4443 168.523 96.0107V90.5088C169.777 91.083 171.055 91.499 172.355 91.7568C173.656 92.0029 174.682 92.126 175.432 92.126C176.205 92.126 176.768 92.0439 177.119 91.8799C177.482 91.7041 177.664 91.4463 177.664 91.1064C177.664 90.8135 177.541 90.5674 177.295 90.3682C177.061 90.1572 176.633 89.917 176.012 89.6475C175.402 89.3779 174.541 89.0146 173.428 88.5576C172.326 88.1006 171.406 87.6025 170.668 87.0635C169.941 86.5244 169.396 85.8799 169.033 85.1299C168.67 84.3799 168.488 83.46 168.488 82.3701C168.488 80.4248 169.238 78.96 170.738 77.9756C172.238 76.9912 174.225 76.499 176.697 76.499C178.01 76.499 179.246 76.6455 180.406 76.9385C181.566 77.2197 182.768 77.6357 184.01 78.1865L182.129 82.6162C181.145 82.1709 180.148 81.8135 179.141 81.5439C178.133 81.2744 177.33 81.1396 176.732 81.1396C176.193 81.1396 175.777 81.21 175.484 81.3506C175.191 81.4912 175.045 81.6963 175.045 81.9658C175.045 82.2119 175.145 82.4287 175.344 82.6162C175.555 82.8037 175.947 83.0205 176.521 83.2666C177.096 83.5127 177.934 83.8584 179.035 84.3037C180.195 84.7725 181.15 85.2764 181.9 85.8154C182.662 86.3428 183.225 86.9873 183.588 87.749C183.963 88.5107 184.15 89.4775 184.15 90.6494ZM221.785 83.8818C221.785 85.8623 221.545 87.667 221.064 89.2959C220.596 90.9131 219.857 92.3076 218.85 93.4795C217.842 94.6514 216.547 95.5537 214.965 96.1865C213.383 96.8076 211.49 97.1182 209.287 97.1182C207.131 97.1182 205.262 96.8076 203.68 96.1865C202.109 95.5537 200.814 94.6572 199.795 93.4971C198.775 92.3252 198.02 90.9248 197.527 89.2959C197.035 87.667 196.789 85.8506 196.789 83.8467C196.789 81.1748 197.229 78.8545 198.107 76.8857C198.998 74.9053 200.369 73.376 202.221 72.2979C204.072 71.208 206.439 70.6631 209.322 70.6631C212.252 70.6631 214.631 71.208 216.459 72.2979C218.299 73.3877 219.646 74.9229 220.502 76.9033C221.357 78.8838 221.785 81.21 221.785 83.8818ZM204.102 83.8818C204.102 85.4287 204.277 86.7588 204.629 87.8721C204.98 88.9854 205.537 89.8408 206.299 90.4385C207.061 91.0361 208.057 91.335 209.287 91.335C210.564 91.335 211.578 91.0361 212.328 90.4385C213.09 89.8408 213.635 88.9854 213.963 87.8721C214.303 86.7588 214.473 85.4287 214.473 83.8818C214.473 81.5615 214.086 79.7275 213.312 78.3799C212.539 77.0322 211.209 76.3584 209.322 76.3584C208.068 76.3584 207.055 76.6631 206.281 77.2725C205.52 77.8818 204.963 78.749 204.611 79.874C204.271 80.999 204.102 82.335 204.102 83.8818ZM238.186 76.499C240.389 76.499 242.117 77.3838 243.371 79.1533C244.625 80.9111 245.252 83.4482 245.252 86.7646C245.252 89.0264 244.936 90.9307 244.303 92.4775C243.67 94.0127 242.803 95.1729 241.701 95.958C240.611 96.7314 239.369 97.1182 237.975 97.1182C237.037 97.1182 236.24 97.001 235.584 96.7666C234.939 96.5322 234.4 96.2393 233.967 95.8877C233.545 95.5361 233.188 95.1787 232.895 94.8154H232.684C232.742 95.2725 232.789 95.7646 232.824 96.292C232.871 96.8193 232.895 97.4346 232.895 98.1377V105.415H226.021V76.8506H231.611L232.578 79.3818H232.895C233.223 78.8662 233.621 78.3916 234.09 77.958C234.559 77.5127 235.127 77.1611 235.795 76.9033C236.475 76.6338 237.271 76.499 238.186 76.499ZM235.602 81.8955C234.934 81.8955 234.406 82.0537 234.02 82.3701C233.633 82.6865 233.352 83.167 233.176 83.8115C233.012 84.4443 232.918 85.2354 232.895 86.1846V86.7295C232.895 87.7842 232.977 88.6748 233.141 89.4014C233.305 90.1162 233.586 90.6611 233.984 91.0361C234.383 91.3994 234.934 91.5811 235.637 91.5811C236.211 91.5811 236.691 91.417 237.078 91.0889C237.465 90.7607 237.758 90.2393 237.957 89.5244C238.156 88.8096 238.256 87.8662 238.256 86.6943C238.256 84.9482 238.027 83.7119 237.57 82.9854C237.125 82.2588 236.469 81.8955 235.602 81.8955ZM258.154 76.499C260.088 76.499 261.758 76.8389 263.164 77.5186C264.57 78.1865 265.654 79.1943 266.416 80.542C267.178 81.8896 267.559 83.5771 267.559 85.6045V88.6631H255.271C255.33 89.7061 255.717 90.5615 256.432 91.2295C257.158 91.8975 258.225 92.2314 259.631 92.2314C260.873 92.2314 262.01 92.1084 263.041 91.8623C264.084 91.6162 265.156 91.2354 266.258 90.7197V95.6592C265.297 96.1631 264.248 96.5322 263.111 96.7666C261.975 97.001 260.539 97.1182 258.805 97.1182C256.801 97.1182 255.008 96.7607 253.426 96.0459C251.844 95.3311 250.596 94.2236 249.682 92.7236C248.779 91.2236 248.328 89.2959 248.328 86.9404C248.328 84.5498 248.738 82.5869 249.559 81.0518C250.379 79.5049 251.527 78.3623 253.004 77.624C254.48 76.874 256.197 76.499 258.154 76.499ZM258.4 81.1748C257.592 81.1748 256.912 81.4326 256.361 81.9482C255.822 82.4521 255.506 83.249 255.412 84.3389H261.318C261.307 83.7529 261.189 83.2197 260.967 82.7393C260.744 82.2588 260.416 81.8779 259.982 81.5967C259.561 81.3154 259.033 81.1748 258.4 81.1748ZM283.906 76.499C285.957 76.499 287.633 77.0791 288.934 78.2393C290.234 79.3994 290.885 81.2568 290.885 83.8115V96.7666H284.012V85.9033C284.012 84.5791 283.818 83.583 283.432 82.915C283.057 82.2354 282.447 81.8955 281.604 81.8955C280.303 81.8955 279.43 82.4287 278.984 83.4951C278.539 84.5498 278.316 86.0674 278.316 88.0479V96.7666H271.443V76.8506H276.629L277.561 79.4873H277.824C278.246 78.8545 278.75 78.3154 279.336 77.8701C279.922 77.4248 280.596 77.085 281.357 76.8506C282.119 76.6162 282.969 76.499 283.906 76.499ZM322.121 88.9619C322.121 90.3564 321.77 91.6807 321.066 92.9346C320.363 94.1768 319.268 95.1846 317.779 95.958C316.303 96.7314 314.393 97.1182 312.049 97.1182C310.877 97.1182 309.846 97.0654 308.955 96.96C308.076 96.8545 307.256 96.6846 306.494 96.4502C305.732 96.2041 304.941 95.8877 304.121 95.501V89.3135C305.516 90.0166 306.922 90.5557 308.34 90.9307C309.758 91.2939 311.041 91.4756 312.189 91.4756C312.881 91.4756 313.443 91.3936 313.877 91.2295C314.322 91.0654 314.65 90.8428 314.861 90.5615C315.072 90.2686 315.178 89.9346 315.178 89.5596C315.178 89.1143 315.02 88.7393 314.703 88.4346C314.398 88.1182 313.906 87.79 313.227 87.4502C312.547 87.1104 311.65 86.6885 310.537 86.1846C309.588 85.7393 308.727 85.2822 307.953 84.8135C307.191 84.3447 306.535 83.8115 305.984 83.2139C305.445 82.6045 305.029 81.8955 304.736 81.0869C304.443 80.2783 304.297 79.3232 304.297 78.2217C304.297 76.5693 304.701 75.1865 305.51 74.0732C306.33 72.9482 307.467 72.1045 308.92 71.542C310.385 70.9795 312.072 70.6982 313.982 70.6982C315.658 70.6982 317.164 70.8857 318.5 71.2607C319.848 71.6357 321.055 72.0635 322.121 72.5439L319.994 77.9053C318.893 77.4014 317.809 77.0029 316.742 76.71C315.676 76.4053 314.686 76.2529 313.771 76.2529C313.174 76.2529 312.682 76.3291 312.295 76.4814C311.92 76.6221 311.639 76.8154 311.451 77.0615C311.275 77.3076 311.188 77.5889 311.188 77.9053C311.188 78.3037 311.34 78.6611 311.645 78.9775C311.961 79.2939 312.482 79.6396 313.209 80.0146C313.947 80.3779 314.949 80.8525 316.215 81.4385C317.469 82.001 318.535 82.6104 319.414 83.2666C320.293 83.9111 320.961 84.6904 321.418 85.6045C321.887 86.5068 322.121 87.626 322.121 88.9619ZM344.709 86.7646C344.709 88.4287 344.48 89.9053 344.023 91.1943C343.566 92.4834 342.904 93.5674 342.037 94.4463C341.17 95.3252 340.121 95.9932 338.891 96.4502C337.66 96.8955 336.271 97.1182 334.725 97.1182C333.283 97.1182 331.959 96.8955 330.752 96.4502C329.557 95.9932 328.514 95.3252 327.623 94.4463C326.732 93.5674 326.041 92.4834 325.549 91.1943C325.068 89.9053 324.828 88.4287 324.828 86.7646C324.828 84.5615 325.227 82.6982 326.023 81.1748C326.832 79.6514 327.98 78.4912 329.469 77.6943C330.969 76.8975 332.756 76.499 334.83 76.499C336.74 76.499 338.439 76.8975 339.928 77.6943C341.416 78.4912 342.582 79.6514 343.426 81.1748C344.281 82.6982 344.709 84.5615 344.709 86.7646ZM331.807 86.7646C331.807 87.9014 331.906 88.8623 332.105 89.6475C332.305 90.4209 332.621 91.0127 333.055 91.4229C333.5 91.8213 334.08 92.0205 334.795 92.0205C335.51 92.0205 336.078 91.8213 336.5 91.4229C336.922 91.0127 337.227 90.4209 337.414 89.6475C337.613 88.8623 337.713 87.9014 337.713 86.7646C337.713 85.6279 337.613 84.6787 337.414 83.917C337.227 83.1553 336.916 82.5811 336.482 82.1943C336.061 81.8076 335.486 81.6143 334.76 81.6143C333.717 81.6143 332.961 82.0479 332.492 82.915C332.035 83.7822 331.807 85.0654 331.807 86.7646ZM368.018 76.8506V96.7666H362.832L361.971 94.2881H361.566C361.156 94.9561 360.635 95.501 360.002 95.9229C359.381 96.333 358.689 96.6318 357.928 96.8193C357.166 97.0186 356.375 97.1182 355.555 97.1182C354.254 97.1182 353.076 96.8662 352.021 96.3623C350.979 95.8584 350.146 95.0674 349.525 93.9893C348.916 92.9111 348.611 91.5225 348.611 89.8232V76.8506H355.484V87.7314C355.484 89.0205 355.666 90.0049 356.029 90.6846C356.404 91.3525 357.014 91.6865 357.857 91.6865C358.725 91.6865 359.393 91.4521 359.861 90.9834C360.342 90.5146 360.676 89.8232 360.863 88.9092C361.051 87.9951 361.145 86.8818 361.145 85.5693V76.8506H368.018ZM384.787 76.499C385.162 76.499 385.555 76.5283 385.965 76.5869C386.375 76.6338 386.68 76.6748 386.879 76.71L386.264 83.1963C386.041 83.1377 385.754 83.0908 385.402 83.0557C385.051 83.0088 384.559 82.9854 383.926 82.9854C383.492 82.9854 383.029 83.0264 382.537 83.1084C382.045 83.1904 381.576 83.3662 381.131 83.6357C380.697 83.8936 380.34 84.292 380.059 84.8311C379.777 85.3584 379.637 86.0732 379.637 86.9756V96.7666H372.764V76.8506H377.879L378.951 80.0322H379.285C379.648 79.376 380.111 78.7842 380.674 78.2568C381.248 77.7178 381.887 77.29 382.59 76.9736C383.305 76.6572 384.037 76.499 384.787 76.499ZM398.744 97.1182C396.729 97.1182 394.977 96.7607 393.488 96.0459C392 95.3193 390.846 94.2061 390.025 92.7061C389.217 91.1943 388.812 89.2607 388.812 86.9053C388.812 84.4912 389.264 82.5166 390.166 80.9814C391.08 79.4463 392.328 78.3154 393.91 77.5889C395.492 76.8623 397.285 76.499 399.289 76.499C400.508 76.499 401.662 76.6338 402.752 76.9033C403.854 77.1729 404.873 77.542 405.811 78.0107L403.789 83.0908C402.969 82.7275 402.201 82.4404 401.486 82.2295C400.783 82.0068 400.051 81.8955 399.289 81.8955C398.598 81.8955 397.988 82.0771 397.461 82.4404C396.934 82.8037 396.523 83.3545 396.23 84.0928C395.938 84.8193 395.791 85.7451 395.791 86.8701C395.791 88.0186 395.938 88.9443 396.23 89.6475C396.535 90.3506 396.951 90.8604 397.479 91.1768C398.018 91.4932 398.633 91.6514 399.324 91.6514C400.32 91.6514 401.311 91.499 402.295 91.1943C403.291 90.8779 404.234 90.4443 405.125 89.8936V95.3604C404.305 95.8994 403.379 96.3271 402.348 96.6436C401.316 96.96 400.115 97.1182 398.744 97.1182ZM418.045 76.499C419.979 76.499 421.648 76.8389 423.055 77.5186C424.461 78.1865 425.545 79.1943 426.307 80.542C427.068 81.8896 427.449 83.5771 427.449 85.6045V88.6631H415.162C415.221 89.7061 415.607 90.5615 416.322 91.2295C417.049 91.8975 418.115 92.2314 419.521 92.2314C420.764 92.2314 421.9 92.1084 422.932 91.8623C423.975 91.6162 425.047 91.2354 426.148 90.7197V95.6592C425.188 96.1631 424.139 96.5322 423.002 96.7666C421.865 97.001 420.43 97.1182 418.695 97.1182C416.691 97.1182 414.898 96.7607 413.316 96.0459C411.734 95.3311 410.486 94.2236 409.572 92.7236C408.67 91.2236 408.219 89.2959 408.219 86.9404C408.219 84.5498 408.629 82.5869 409.449 81.0518C410.27 79.5049 411.418 78.3623 412.895 77.624C414.371 76.874 416.088 76.499 418.045 76.499ZM418.291 81.1748C417.482 81.1748 416.803 81.4326 416.252 81.9482C415.713 82.4521 415.396 83.249 415.303 84.3389H421.209C421.197 83.7529 421.08 83.2197 420.857 82.7393C420.635 82.2588 420.307 81.8779 419.873 81.5967C419.451 81.3154 418.924 81.1748 418.291 81.1748ZM457.895 88.9619C457.895 90.3564 457.543 91.6807 456.84 92.9346C456.137 94.1768 455.041 95.1846 453.553 95.958C452.076 96.7314 450.166 97.1182 447.822 97.1182C446.65 97.1182 445.619 97.0654 444.729 96.96C443.85 96.8545 443.029 96.6846 442.268 96.4502C441.506 96.2041 440.715 95.8877 439.895 95.501V89.3135C441.289 90.0166 442.695 90.5557 444.113 90.9307C445.531 91.2939 446.814 91.4756 447.963 91.4756C448.654 91.4756 449.217 91.3936 449.65 91.2295C450.096 91.0654 450.424 90.8428 450.635 90.5615C450.846 90.2686 450.951 89.9346 450.951 89.5596C450.951 89.1143 450.793 88.7393 450.477 88.4346C450.172 88.1182 449.68 87.79 449 87.4502C448.32 87.1104 447.424 86.6885 446.311 86.1846C445.361 85.7393 444.5 85.2822 443.727 84.8135C442.965 84.3447 442.309 83.8115 441.758 83.2139C441.219 82.6045 440.803 81.8955 440.51 81.0869C440.217 80.2783 440.07 79.3232 440.07 78.2217C440.07 76.5693 440.475 75.1865 441.283 74.0732C442.104 72.9482 443.24 72.1045 444.693 71.542C446.158 70.9795 447.846 70.6982 449.756 70.6982C451.432 70.6982 452.938 70.8857 454.273 71.2607C455.621 71.6357 456.828 72.0635 457.895 72.5439L455.768 77.9053C454.666 77.4014 453.582 77.0029 452.516 76.71C451.449 76.4053 450.459 76.2529 449.545 76.2529C448.947 76.2529 448.455 76.3291 448.068 76.4814C447.693 76.6221 447.412 76.8154 447.225 77.0615C447.049 77.3076 446.961 77.5889 446.961 77.9053C446.961 78.3037 447.113 78.6611 447.418 78.9775C447.734 79.2939 448.256 79.6396 448.982 80.0146C449.721 80.3779 450.723 80.8525 451.988 81.4385C453.242 82.001 454.309 82.6104 455.188 83.2666C456.066 83.9111 456.734 84.6904 457.191 85.6045C457.66 86.5068 457.895 87.626 457.895 88.9619ZM480.482 86.7646C480.482 88.4287 480.254 89.9053 479.797 91.1943C479.34 92.4834 478.678 93.5674 477.811 94.4463C476.943 95.3252 475.895 95.9932 474.664 96.4502C473.434 96.8955 472.045 97.1182 470.498 97.1182C469.057 97.1182 467.732 96.8955 466.525 96.4502C465.33 95.9932 464.287 95.3252 463.396 94.4463C462.506 93.5674 461.814 92.4834 461.322 91.1943C460.842 89.9053 460.602 88.4287 460.602 86.7646C460.602 84.5615 461 82.6982 461.797 81.1748C462.605 79.6514 463.754 78.4912 465.242 77.6943C466.742 76.8975 468.529 76.499 470.604 76.499C472.514 76.499 474.213 76.8975 475.701 77.6943C477.189 78.4912 478.355 79.6514 479.199 81.1748C480.055 82.6982 480.482 84.5615 480.482 86.7646ZM467.58 86.7646C467.58 87.9014 467.68 88.8623 467.879 89.6475C468.078 90.4209 468.395 91.0127 468.828 91.4229C469.273 91.8213 469.854 92.0205 470.568 92.0205C471.283 92.0205 471.852 91.8213 472.273 91.4229C472.695 91.0127 473 90.4209 473.188 89.6475C473.387 88.8623 473.486 87.9014 473.486 86.7646C473.486 85.6279 473.387 84.6787 473.188 83.917C473 83.1553 472.689 82.5811 472.256 82.1943C471.834 81.8076 471.26 81.6143 470.533 81.6143C469.49 81.6143 468.734 82.0479 468.266 82.915C467.809 83.7822 467.58 85.0654 467.58 86.7646ZM493.49 97.1182C491.475 97.1182 489.723 96.7607 488.234 96.0459C486.746 95.3193 485.592 94.2061 484.771 92.7061C483.963 91.1943 483.559 89.2607 483.559 86.9053C483.559 84.4912 484.01 82.5166 484.912 80.9814C485.826 79.4463 487.074 78.3154 488.656 77.5889C490.238 76.8623 492.031 76.499 494.035 76.499C495.254 76.499 496.408 76.6338 497.498 76.9033C498.6 77.1729 499.619 77.542 500.557 78.0107L498.535 83.0908C497.715 82.7275 496.947 82.4404 496.232 82.2295C495.529 82.0068 494.797 81.8955 494.035 81.8955C493.344 81.8955 492.734 82.0771 492.207 82.4404C491.68 82.8037 491.27 83.3545 490.977 84.0928C490.684 84.8193 490.537 85.7451 490.537 86.8701C490.537 88.0186 490.684 88.9443 490.977 89.6475C491.281 90.3506 491.697 90.8604 492.225 91.1768C492.764 91.4932 493.379 91.6514 494.07 91.6514C495.066 91.6514 496.057 91.499 497.041 91.1943C498.037 90.8779 498.98 90.4443 499.871 89.8936V95.3604C499.051 95.8994 498.125 96.3271 497.094 96.6436C496.062 96.96 494.861 97.1182 493.49 97.1182ZM510.734 76.8506V96.7666H503.861V76.8506H510.734ZM507.324 68.835C508.309 68.835 509.164 69.04 509.891 69.4502C510.629 69.8604 510.998 70.6748 510.998 71.8936C510.998 73.0771 510.629 73.8799 509.891 74.3018C509.164 74.7119 508.309 74.917 507.324 74.917C506.316 74.917 505.455 74.7119 504.74 74.3018C504.037 73.8799 503.686 73.0771 503.686 71.8936C503.686 70.6748 504.037 69.8604 504.74 69.4502C505.455 69.04 506.316 68.835 507.324 68.835ZM524.498 76.499C526.432 76.499 528.102 76.8389 529.508 77.5186C530.914 78.1865 531.998 79.1943 532.76 80.542C533.521 81.8896 533.902 83.5771 533.902 85.6045V88.6631H521.615C521.674 89.7061 522.061 90.5615 522.775 91.2295C523.502 91.8975 524.568 92.2314 525.975 92.2314C527.217 92.2314 528.354 92.1084 529.385 91.8623C530.428 91.6162 531.5 91.2354 532.602 90.7197V95.6592C531.641 96.1631 530.592 96.5322 529.455 96.7666C528.318 97.001 526.883 97.1182 525.148 97.1182C523.145 97.1182 521.352 96.7607 519.77 96.0459C518.188 95.3311 516.939 94.2236 516.025 92.7236C515.123 91.2236 514.672 89.2959 514.672 86.9404C514.672 84.5498 515.082 82.5869 515.902 81.0518C516.723 79.5049 517.871 78.3623 519.348 77.624C520.824 76.874 522.541 76.499 524.498 76.499ZM524.744 81.1748C523.936 81.1748 523.256 81.4326 522.705 81.9482C522.166 82.4521 521.85 83.249 521.756 84.3389H527.662C527.65 83.7529 527.533 83.2197 527.311 82.7393C527.088 82.2588 526.76 81.8779 526.326 81.5967C525.904 81.3154 525.377 81.1748 524.744 81.1748ZM547.543 91.6865C548.164 91.6865 548.732 91.6221 549.248 91.4932C549.764 91.3643 550.303 91.2002 550.865 91.001V96.0107C550.115 96.3389 549.318 96.6025 548.475 96.8018C547.643 97.0127 546.576 97.1182 545.275 97.1182C543.986 97.1182 542.85 96.9189 541.865 96.5205C540.881 96.1104 540.113 95.4072 539.562 94.4111C539.023 93.4033 538.754 92.0029 538.754 90.21V82.001H536.346V79.2061L539.404 77.0439L541.18 72.8604H545.68V76.8506H550.566V82.001H545.68V89.7529C545.68 90.3975 545.844 90.8838 546.172 91.2119C546.5 91.5283 546.957 91.6865 547.543 91.6865ZM551.938 76.8506H559.18L562.555 88.2764C562.602 88.4404 562.648 88.6455 562.695 88.8916C562.742 89.126 562.783 89.3779 562.818 89.6475C562.854 89.917 562.877 90.1807 562.889 90.4385H563.029C563.088 89.958 563.152 89.542 563.223 89.1904C563.305 88.8271 563.381 88.5342 563.451 88.3115L566.914 76.8506H573.928L566.053 98.0322C565.443 99.6494 564.734 101.003 563.926 102.093C563.129 103.194 562.139 104.021 560.955 104.571C559.783 105.134 558.324 105.415 556.578 105.415C555.945 105.415 555.4 105.38 554.943 105.31C554.498 105.251 554.105 105.187 553.766 105.116V99.7197C554.023 99.7666 554.34 99.8135 554.715 99.8604C555.09 99.9072 555.482 99.9307 555.893 99.9307C556.654 99.9307 557.27 99.7783 557.738 99.4736C558.219 99.1689 558.611 98.7646 558.916 98.2607C559.221 97.7686 559.484 97.2354 559.707 96.6611L559.777 96.4854L551.938 76.8506Z" fill="black"/>
<g clip-path="url(#clip0_329_275)">
<path d="M283.028 1.17675C282.556 0.697767 281.918 0.416016 281.224 0.416016H230.861C229.446 0.416016 228.28 1.59937 228.28 3.03631V54.1742C228.28 54.8786 228.558 55.5267 229.029 56.0056C229.501 56.4846 230.139 56.7664 230.833 56.7664H281.252C281.945 56.7664 282.584 56.4846 283.055 56.0056C283.527 55.5267 283.805 54.8786 283.805 54.1742V3.00813C283.777 2.27558 283.499 1.62755 283.028 1.17675ZM278.699 39.6922L266.989 51.5821H245.096L233.386 39.6922V17.4902L245.096 5.60025H266.989L278.699 17.4902V39.6922Z" fill="#BE1E2D"/>
<path d="M266.961 22.6463V34.5362L261.883 39.6923H250.174L245.096 34.5362V22.6463L247.621 20.0542L250.174 17.4902H261.883L264.436 20.0542L266.961 22.6463Z" fill="#BE1E2D"/>
</g>
<g clip-path="url(#clip1_329_275)">
<path d="M221.747 1.17675C221.276 0.697767 220.637 0.416016 219.944 0.416016H169.581C168.165 0.416016 167 1.59937 167 3.03631V54.1742C167 54.8786 167.277 55.5267 167.749 56.0056C168.221 56.4846 168.859 56.7664 169.553 56.7664H219.971C221.387 56.7664 222.524 55.6112 222.524 54.1742V3.00813C222.497 2.27558 222.219 1.62755 221.747 1.17675ZM217.419 22.6462V39.7204L205.709 51.6103H172.078L183.788 39.7204H205.681V34.5643H172.078V17.4902L183.788 5.60025H217.391L205.681 17.4902H183.815V22.6462H217.419Z" fill="#BE1E2D"/>
</g>
<g clip-path="url(#clip2_329_275)">
<path d="M344.354 1.17675C343.882 0.697767 343.244 0.416016 342.55 0.416016H292.187C290.772 0.416016 289.606 1.59937 289.606 3.03631V54.1742C289.606 54.8786 289.884 55.5267 290.356 56.0056C290.827 56.4846 291.466 56.7664 292.159 56.7664H342.578C343.993 56.7664 345.131 55.6112 345.131 54.1742V3.00813C345.103 2.27558 344.826 1.62755 344.354 1.17675ZM340.025 22.6462V39.7204L328.315 51.6103H294.684L306.394 39.7204H328.288V34.5643H294.684V17.4902L306.394 5.60025H339.997L328.288 17.4902H306.422V22.6462H340.025Z" fill="#BE1E2D"/>
</g>
<g clip-path="url(#clip3_329_275)">
<path d="M405.634 1.17675C405.162 0.697767 404.524 0.416016 403.83 0.416016H353.467C352.052 0.416016 350.887 1.59937 350.887 3.03631V54.1742C350.887 54.8786 351.164 55.5267 351.636 56.0056C352.108 56.4846 352.746 56.7664 353.44 56.7664H403.858C405.273 56.7664 406.411 55.6112 406.411 54.1742V3.00813C406.383 2.27558 406.106 1.62755 405.634 1.17675ZM401.305 22.6462V39.7204L389.596 51.6103H355.965L367.674 39.7204H389.568V34.5643H355.965V17.4902L367.674 5.60025H401.278L389.568 17.4902H367.702V22.6462H401.305Z" fill="#BE1E2D"/>
</g>
<defs>
<clipPath id="clip0_329_275">
<rect width="55.4966" height="56.3503" fill="white" transform="translate(228.28 0.416016)"/>
</clipPath>
<clipPath id="clip1_329_275">
<rect width="55.4966" height="56.3503" fill="white" transform="translate(167 0.416016)"/>
</clipPath>
<clipPath id="clip2_329_275">
<rect width="55.4966" height="56.3503" fill="white" transform="translate(289.606 0.416016)"/>
</clipPath>
<clipPath id="clip3_329_275">
<rect width="55.4966" height="56.3503" fill="white" transform="translate(350.887 0.416016)"/>
</clipPath>
</defs>
</svg>
